<svg width="19" height="17" viewBox="0 0 19 17" fill="none" xmlns="http://www.w3.org/2000/svg">
    <g clip-path="url(#clip0_6990_174)">
        <path d="M4.10328 1.77439V15.2144H8.69185C8.69185 15.2144 13.0861 15.461 14.8804 11.5583C16.6747 7.65554 14.629 1.7323 8.88613 1.7323C3.14328 1.7323 2.28613 1.7323 2.28613 1.7323V0.00644278H8.86899C8.86899 0.00644278 14.8461 -0.342337 16.9147 5.47266C18.9833 11.2877 14.6861 17.0004 9.20042 17.0004C3.7147 17.0004 2.28613 17.0004 2.28613 17.0004V0.355222L4.10328 1.77439Z" fill="black"/>
        <path d="M0 5.47266V7.48716H18.9829V5.4907L0 5.47266Z" fill="black"/>
        <path d="M0.0175781 9.51953V11.534H19.0004V9.53757L0.0175781 9.51953Z" fill="black"/>
    </g>
    <defs>
        <clipPath id="clip0_6990_174">
            <rect width="19" height="17" fill="white"/>
        </clipPath>
    </defs>
</svg>
