<svg width="19" height="18" viewBox="0 0 19 18" fill="none" xmlns="http://www.w3.org/2000/svg">
    <g clip-path="url(#clip0_6988_161)">
        <path d="M9.84991 15.2656H9.22186C8.95742 15.2656 8.73926 15.0512 8.73926 14.7914V3.1573C8.73926 2.89747 8.95742 2.68311 9.22186 2.68311H9.84991C10.1143 2.68311 10.3325 2.89747 10.3325 3.1573V14.7914C10.3325 15.0512 10.1143 15.2656 9.84991 15.2656Z" fill="black"/>
        <path d="M10.9808 6.50268C10.9808 6.50268 10.756 5.87259 10.2602 5.74916C9.76435 5.61925 10.3131 4.2876 10.3131 4.2876C10.3131 4.2876 12.2435 4.56692 12.7261 6.3143C12.7261 6.3143 12.9112 6.99637 12.1245 6.99637C11.3444 6.99637 11.5758 6.99637 11.5758 6.99637C11.5758 6.99637 11.1196 7.01585 10.9808 6.50268Z" fill="black"/>
        <path d="M8.78616 5.74247C8.78616 5.74247 7.95318 5.85939 7.8474 6.72984C7.74162 7.60028 8.94482 7.87311 8.94482 7.87311V9.70494L7.83418 9.34766C7.83418 9.34766 5.87732 8.91244 6.14176 6.50248C6.4062 4.09252 9.51998 4.19646 9.51998 4.19646L8.78616 5.74247Z" fill="black"/>
        <path d="M10.2339 8.16553C10.2339 8.16553 12.1379 8.34741 12.7527 9.41923C13.3675 10.4975 13.6518 13.2258 10.2074 13.8039L10.2736 12.1995C10.2736 12.1995 11.0537 12.1215 11.252 11.5304C11.4503 10.9393 11.3313 10.1598 10.1546 10.0039C8.98442 9.86094 10.2339 8.16553 10.2339 8.16553Z" fill="black"/>
        <path d="M8.81201 12.2641C8.81201 12.2641 8.03191 12.1212 7.68814 11.1209C7.68814 11.1209 7.64848 10.6597 7.21876 10.6597C6.78905 10.6597 6.33289 10.6597 6.33289 10.6597C6.33289 10.6597 5.78418 10.7116 5.87673 11.4392C5.96928 12.1667 6.73616 13.5178 8.91779 13.7582L8.81201 12.2641Z" fill="black"/>
        <path d="M6.80271 0.0197965C6.80271 0.0197965 0 1.84513 0 9.05552C0 16.2659 6.9151 17.9808 6.9151 17.9808C6.9151 17.9808 7.15971 18.0523 7.15971 17.63C7.15971 17.2078 7.15971 16.5972 7.15971 16.5972C7.15971 16.5972 7.14649 16.4218 6.88205 16.3244C6.61761 16.2204 1.85769 14.6874 1.58003 8.99056C1.58003 8.99056 1.42797 3.51456 7.00104 1.63077C7.00104 1.63077 7.16632 1.5788 7.16632 1.31897C7.16632 1.05913 7.16632 0.188689 7.16632 0.188689C7.16632 0.188689 7.22582 -0.0711454 6.80271 0.0197965Z" fill="black"/>
        <path d="M12.1907 17.9871C12.1907 17.9871 18.9934 16.1552 18.9934 8.95135C18.9934 1.74745 12.0849 0.0260535 12.0849 0.0260535C12.0849 0.0260535 11.8337 -0.0454008 11.8337 0.376829C11.8337 0.79906 11.8337 1.40967 11.8337 1.40967C11.8337 1.40967 11.8469 1.58506 12.1114 1.6825C12.3758 1.78643 17.1357 3.31945 17.4134 9.01631C17.4134 9.01631 17.5654 14.4923 11.9924 16.3761C11.9924 16.3761 11.8271 16.4281 11.8271 16.6879C11.8271 16.9477 11.8271 17.8182 11.8271 17.8182C11.8271 17.8182 11.7676 18.0715 12.1907 17.9871Z" fill="black"/>
    </g>
    <defs>
        <clipPath id="clip0_6988_161">
            <rect width="19" height="18" fill="white"/>
        </clipPath>
    </defs>
</svg>
