<svg width="18" height="17" viewBox="0 0 18 17" fill="none" xmlns="http://www.w3.org/2000/svg">
    <g clip-path="url(#clip0_6990_184)">
        <path d="M1.67578 0H16.0061V3.82639H10.8256V8.8851C10.8256 8.8851 8.66049 8.95288 6.87456 8.8851V3.82639H1.67578V0Z" fill="white"/>
        <path d="M6.96019 6.53772C6.96019 6.53772 2.57487 6.80267 0.923495 7.80086C0.923495 7.80086 -0.709533 8.50328 4.93573 9.28581C4.93573 9.28581 12.1773 10.0745 16.8807 8.44783C16.8807 8.44783 19.6269 7.34489 10.6483 6.54388L10.7522 6.05711C10.7522 6.05711 14.0672 6.05711 16.7584 6.91358C16.7584 6.91358 18.1467 7.31408 17.9938 8.31227C17.8409 9.31046 14.1223 10.0992 10.7522 10.13L6.78894 10.1053C6.78894 10.1053 0.122272 9.80955 -5.21819e-05 8.10894C-0.122376 6.40832 5.69414 6.06327 7.25989 5.99549C8.81952 5.92771 6.96019 6.53772 6.96019 6.53772Z" fill="white"/>
        <path d="M6.8623 9.95117V17.0001H10.8868V10.0005L6.8623 9.95117Z" fill="white"/>
    </g>
    <defs>
        <clipPath id="clip0_6990_184">
            <rect width="18" height="17" fill="white"/>
        </clipPath>
    </defs>
</svg>
