<?xml version="1.0" encoding="utf-8"?>
<!-- Generator: Adobe Illustrator 19.0.0, SVG Export Plug-In . SVG Version: 6.00 Build 0)  -->
<svg version="1.1" id="Layer_1" xmlns="http://www.w3.org/2000/svg" xmlns:xlink="http://www.w3.org/1999/xlink" x="0px" y="0px"
	 viewBox="-974.5 0.5 1000 1000" style="enable-background:new -974.5 0.5 1000 1000;" xml:space="preserve">
<style type="text/css">
	.st0{fill:#FFFFFF;}
</style>
<rect x="-969" y="6" width="988.5" height="988.5"/>
<g>
	<path class="st0" d="M-343.1,574.2c-16.4,0-29.7-13.3-29.7-29.7V399.7h-144.9c-16.4,0-29.7-13.3-29.7-29.7
		c0-16.4,13.3-29.7,29.7-29.7h204.2v204.2C-313.5,561-326.8,574.2-343.1,574.2z"/>
</g>
<g>
	<path class="st0" d="M-584.8,639.7c-7.6,0-15.2-2.9-21-8.7c-11.6-11.6-11.6-30.4,0-41.9l219.9-219.9c11.6-11.6,30.4-11.6,41.9,0
		c11.6,11.6,11.6,30.4,0,41.9L-563.8,631C-569.6,636.8-577.2,639.7-584.8,639.7z"/>
</g>
</svg>
