<svg width="18" height="18" viewBox="0 0 18 18" fill="none" xmlns="http://www.w3.org/2000/svg">
<g clip-path="url(#clip0_7336_3764)">
<path d="M9.00951 0C13.9392 0 18.0001 4.04197 18.019 8.97167C18.019 13.9958 13.977 18.0378 8.91507 18C3.98538 17.9622 0.018954 13.9958 6.62344e-05 9.06611C-0.0188215 4.04197 4.00426 0 9.00951 0ZM12.4282 6.6107C10.1428 6.6107 7.87625 6.6107 5.57194 6.6107C5.3264 8.21616 5.3264 9.80273 5.57194 11.3893C7.85736 11.3893 10.1239 11.3893 12.4282 11.3893C12.6548 9.80273 12.6548 8.21616 12.4282 6.6107ZM12.1638 5.40189C12.1638 5.36411 12.1638 5.32634 12.1449 5.30745C11.9182 4.40084 11.5971 3.55089 11.106 2.75761C10.785 2.26653 10.4261 1.81322 9.91612 1.49213C9.3306 1.13326 8.72619 1.09549 8.12179 1.47324C7.89513 1.60546 7.68737 1.79433 7.49849 1.98321C7.00741 2.47429 6.66743 3.05981 6.403 3.68311C6.17635 4.24974 5.98747 4.81637 5.77971 5.40189C7.9518 5.40189 10.0483 5.40189 12.1638 5.40189ZM5.83637 12.617C5.83637 12.6548 5.83637 12.6925 5.85526 12.7114C6.06302 13.5425 6.36523 14.3547 6.79965 15.1102C7.12074 15.6579 7.49849 16.149 8.04624 16.489C8.68842 16.9045 9.34949 16.9234 9.97278 16.4701C10.2561 16.2812 10.5016 16.0357 10.7283 15.7712C11.2194 15.2046 11.5405 14.5624 11.786 13.8636C11.9371 13.4481 12.0693 13.0325 12.2015 12.5981C10.0483 12.617 7.9518 12.617 5.83637 12.617ZM1.56775 11.3893C2.51213 11.3893 3.41874 11.3893 4.36313 11.3893C4.13648 9.78384 4.13648 8.19727 4.36313 6.6107C4.32535 6.6107 4.30647 6.59181 4.28758 6.59181C3.41874 6.59181 2.54991 6.59181 1.68107 6.59181C1.56775 6.59181 1.54886 6.64848 1.52997 6.74292C1.41665 7.32844 1.26554 7.93284 1.20888 8.51836C1.13333 9.50052 1.26554 10.4449 1.56775 11.3893ZM13.637 6.6107C13.8637 8.21616 13.8637 9.80273 13.637 11.3893C14.5814 11.3893 15.5069 11.3893 16.4324 11.3893C16.9424 9.78384 16.9424 8.19727 16.4324 6.6107C15.488 6.6107 14.5625 6.6107 13.637 6.6107ZM11.8993 1.77545C11.9371 1.851 11.9371 1.86988 11.9371 1.86988C12.636 2.9276 13.1081 4.06086 13.3726 5.28856C13.3915 5.42078 13.467 5.40189 13.5615 5.40189C14.2414 5.40189 14.9214 5.40189 15.6013 5.40189C15.6958 5.40189 15.7902 5.40189 15.9035 5.40189C14.9969 3.72088 13.6937 2.53095 11.8993 1.77545ZM11.9182 16.1868C13.6748 15.4879 14.9969 14.2791 15.9035 12.617C15.8469 12.617 15.828 12.617 15.8091 12.617C15.0536 12.617 14.2981 12.617 13.5426 12.617C13.4292 12.617 13.3915 12.6548 13.3726 12.7681C13.1081 13.958 12.636 15.0724 11.9749 16.0923C11.956 16.1112 11.9371 16.149 11.9182 16.1868ZM6.08191 16.2057C6.06303 16.1679 6.06302 16.1679 6.06302 16.149C5.36418 15.0913 4.89199 13.958 4.62756 12.7114C4.60867 12.5792 4.51423 12.5981 4.43868 12.5981C3.70206 12.5981 2.98433 12.5981 2.24771 12.5981C2.20993 12.5981 2.17215 12.5981 2.11549 12.617C2.7199 14.0336 4.81644 15.9223 6.08191 16.2057ZM6.06302 1.81322C4.30647 2.53095 3.00321 3.72088 2.0966 5.40189C2.92766 5.40189 3.70206 5.40189 4.49534 5.40189C4.53312 5.40189 4.60867 5.32634 4.62756 5.26967C4.77866 4.79748 4.89199 4.32529 5.04309 3.87198C5.28863 3.13536 5.64749 2.47429 6.06302 1.81322Z" fill="white"/>
</g>
<defs>
<clipPath id="clip0_7336_3764">
<rect width="18" height="18" fill="white"/>
</clipPath>
</defs>
</svg>
