<?xml version="1.0" encoding="utf-8"?>
<!-- Generator: Adobe Illustrator 19.0.0, SVG Export Plug-In . SVG Version: 6.00 Build 0)  -->
<svg version="1.1" id="Layer_1" xmlns="http://www.w3.org/2000/svg" xmlns:xlink="http://www.w3.org/1999/xlink" x="0px" y="0px"
	 viewBox="-867 1 1000 1000" style="enable-background:new -867 1 1000 1000;" xml:space="preserve">
<style type="text/css">
	.st0{fill:#3B62F6;}
	.st1{enable-background:new    ;}
	.st2{font-family:'ArialMT';}
	.st3{font-size:12px;}
	.st4{fill:#FFFFFF;}
</style>
<path class="st0" d="M-679.2,158.3c0,0,18.3-26.7,30.5-47.3c12.2-21.4,32-47.3,82.4-48.8c51.1-0.8,82.4-3.1,111.4-19.8
	c29.8-16.8,56.5-32.8,80.9-35.1c24.4-2.3,55.7,12.2,77.1,23.7c21.4,12.2,45.8,29.8,96.9,26.7c51.9-2.3,86.2,4.6,112.9,48.8
	c25.9,43.5,42,74,86.2,96.9c44.3,23.7,73.2,45.8,73.2,119.8s36.6,122.1,42,133.5c5.3,10.7,26.7,55.7-17.5,122.1
	c0,0-25.9,27.5-24.4,93.9c1.5,65.6-17.5,94.6-64.9,119.8c-47.3,25.2-64.1,49.6-77.1,72.5c-13.7,22.9-31.3,80.1-115.2,75.5
	c0,0-67.1-8.4-112.9,27.5c-45,36.6-103,25.2-132,3.8c-29.8-21.4-65.6-31.3-106.8-31.3c-40.4,0-90.8,0-123.6-69.4
	c0,0-29.8-54.2-68.7-72.5s-87.7-45.8-79.4-124.4c0,0,3.1-64.1-26.7-105.3c-30.5-41.2-32.8-91.6,2.3-143.4c0,0,28.2-37.4,26.7-101.5
	s10.7-92.3,69.4-118.3C-736.4,204.9-693.7,181.2-679.2,158.3z"/>
<text transform="matrix(1 0 0 1 -1253.3688 1334.9299)" class="st2 st3"> </text>
<text transform="matrix(1 0 0 1 -1250.4735 1333.2765)" class="st4" style="font-family:'Montserrat-Regular'; font-size:6.1344px;"> </text>
<text transform="matrix(1 0 0 1 -1249.0403 1332.5491)" class="st4" style="font-family:'Montserrat-Regular'; font-size:6.1344px;"> </text>
<text transform="matrix(1 0 0 1 -1247.5811 1331.8748)" class="st4" style="font-family:'Montserrat-Regular'; font-size:6.1344px;"> </text>
<text transform="matrix(1 0 0 1 -1246.0981 1331.2549)" class="st4" style="font-family:'Montserrat-Regular'; font-size:6.1344px;"> </text>
<text transform="matrix(1 0 0 1 -1244.5928 1330.6914)" class="st4" style="font-family:'Poppins-SemiBold'; font-size:6.1344px; letter-spacing:98;"> </text>
<text id="XMLID_1_" transform="matrix(1 0 0 1 -866 868)" class="st2 st3"> </text>
<g id="XMLID_2_">
	<path class="st4" d="M-734.9,465l2.3-19.8l5.3,0.8l-1.5,13.7l8.4,0.8l1.5-9.9l5.3,0.8l-1.5,9.9l13.7,1.5l-0.8,6.1L-734.9,465z"/>
	<path class="st4" d="M-699.8,420l-3.1,13l5.3,3.8l-1.5,6.9l-29.8-19.1l1.5-7.6l35.1-3.8l-1.5,6.9H-699.8z M-719.7,421.5l12.2,7.6
		l2.3-9.2L-719.7,421.5z"/>
	<path class="st4" d="M-710.5,367.4l31.3,11.4l-2.3,6.1l-26.7,6.1l21.4,7.6l-2.3,6.1l-31.3-11.4l2.3-6.1l26.7-6.1l-21.4-8.4
		L-710.5,367.4z"/>
	<path class="st4" d="M-705.9,355.9l10.7-21.4l4.6,2.3l-3.8,7.6l25.2,12.2l-3.1,6.1l-25.2-12.2l-3.8,7.6L-705.9,355.9z"/>
	<path class="st4" d="M-656.3,321.6l-6.9,10.7l4.6,5.3l-3.8,6.1l-22.1-27.5l3.8-6.1l34.3,7.6l-3.8,6.1L-656.3,321.6z M-676.2,317
		l9.2,11.4l5.3-7.6L-676.2,317z"/>
	<path class="st4" d="M-634.2,301.8c-3.8,5.3-9.9,6.9-15.3,3.1l4.6-5.3c2.3,1.5,4.6,1.5,6.9-0.8c1.5-2.3,1.5-4.6,0-6.1
		c-5.3-4.6-13,11.4-22.1,3.8c-4.6-3.8-4.6-9.9-0.8-15.3s9.9-6.9,14.5-3.1l-4.6,5.3c-1.5-1.5-4.6-0.8-6.1,1.5c-1.5,2.3-1.5,4.6,0,6.1
		c5.3,3.8,13-11.4,22.1-3.8C-630.4,289.5-629.6,296.4-634.2,301.8z"/>
	<path class="st4" d="M-646.4,264.4l5.3-5.3l16,5.3l-6.1-15.3l5.3-5.3l8.4,22.9l8.4,8.4l-4.6,4.6l-8.4-8.4L-646.4,264.4z"/>
	<path class="st4" d="M-573.9,234.6l-9.9,7.6l2.3,6.1l-5.3,3.8l-10.7-33.6l6.1-4.6l29.8,19.8l-5.3,3.8L-573.9,234.6z M-590.7,223.2
		l4.6,13.7l7.6-5.3L-590.7,223.2z"/>
	<path class="st4" d="M-554.1,189.6l6.1-3.8l6.9,35.1l-6.9,3.8l-27.5-22.9l6.1-3.8l21.4,18.3L-554.1,189.6z"/>
	<path class="st4" d="M-518.2,178.1l-11.4,5.3l3.8,7.6l9.9-4.6l2.3,4.6l-9.9,4.6l3.8,7.6l11.4-5.3l2.3,4.6l-16.8,8.4l-14.5-30.5
		l16.8-8.4L-518.2,178.1z"/>
	<path class="st4" d="M-497.6,163.6c7.6-3.1,13,0,14.5,5.3c1.5,3.8,0.8,8.4-3.8,11.4l12.2,9.9l-6.9,2.3l-11.4-9.9l-3.1,0.8l4.6,12.2
		l-6.1,2.3l-11.4-31.3L-497.6,163.6z M-495.3,169l-5.3,1.5l3.1,9.2l5.3-1.5c3.1-1.5,4.6-3.8,3.1-6.9C-490,169-492.3,167.5-495.3,169
		z"/>
	<path class="st4" d="M-448,177.4l-12.2,3.1l-0.8,6.9l-6.9,1.5l3.1-35.1l7.6-1.5l19.8,29.8l-6.9,1.5L-448,177.4z M-458.7,159.8
		l-1.5,14.5l9.2-2.3L-458.7,159.8z"/>
	<path class="st4" d="M-402.2,152.2l-7.6,0.8c-1.5-2.3-4.6-3.8-8.4-3.1c-6.1,0.8-9.2,5.3-8.4,12.2c0.8,6.9,5.3,10.7,11.4,9.2
		c5.3-0.8,7.6-3.8,8.4-9.2l-11.4,1.5l-0.8-5.3l17.5-2.3l0.8,6.1c-0.8,6.9-5.3,13.7-13.7,15.3c-9.2,1.5-17.5-4.6-19.1-14.5
		c-1.5-9.9,4.6-17.5,14.5-19.1C-411.4,143-405.3,146.1-402.2,152.2z"/>
	<path class="st4" d="M-372.5,146.1l-12.2,0.8v8.4l10.7-0.8v5.3l-10.7,0.8v9.2l12.2-0.8v5.3l-19.1,0.8l-0.8-33.6l19.1-0.8
		L-372.5,146.1z"/>
	<path class="st4" d="M-335.1,176.6c-6.9-0.8-11.4-4.6-10.7-11.4l6.9,0.8c0,3.1,1.5,4.6,4.6,4.6c3.1,0,5.3-1.5,5.3-3.8
		c0.8-6.9-16-4.6-15.3-16.8c0.8-6.1,5.3-9.2,12.2-8.4c6.9,0.8,10.7,4.6,10.7,10.7l-6.9-0.8c0-2.3-1.5-3.8-4.6-4.6
		c-2.3,0-4.6,0.8-4.6,3.8c-0.8,6.9,16,4.6,15.3,16C-322.9,172.8-327.5,177.4-335.1,176.6z"/>
	<path class="st4" d="M-292.4,148.4c6.9,1.5,12.2,6.9,13,13.7l-7.6-1.5c-0.8-3.8-3.1-5.3-6.9-6.1c-5.3-0.8-10.7,2.3-11.4,9.2
		c-1.5,6.9,1.5,11.4,7.6,13c3.1,0.8,6.1,0,8.4-3.1l7.6,1.5c-3.8,6.1-9.9,9.2-16.8,7.6c-9.2-1.5-14.5-9.9-13-19.8
		C-309.9,153-301.5,146.9-292.4,148.4z"/>
	<path class="st4" d="M-261.1,191.9c-8.4-3.1-13.7-12.2-10.7-21.4c3.1-9.2,12.2-13.7,21.4-11.4c9.2,3.1,13.7,12.2,10.7,21.4
		C-242.8,190.4-251.9,194.9-261.1,191.9z M-258.8,186.5c5.3,1.5,10.7-0.8,13-7.6c2.3-6.1-0.8-11.4-6.1-13.7
		c-5.3-1.5-10.7,0.8-13,7.6C-267.2,178.9-264.9,184.3-258.8,186.5z"/>
	<path class="st4" d="M-212.3,174.3c6.9,3.1,9.2,9.2,6.9,13.7c-1.5,3.8-5.3,6.9-10.7,6.1l1.5,15.3l-6.9-3.1l-1.5-14.5l-3.1-1.5
		l-5.3,12.2l-6.1-2.3l13.7-30.5L-212.3,174.3z M-214.5,179.7l-5.3-2.3l-3.8,9.2l5.3,2.3c3.1,1.5,5.3,0,6.9-2.3
		C-210.7,183.5-211.5,181.2-214.5,179.7z"/>
	<path class="st4" d="M-176.4,199.5l-10.7-6.1l-3.8,7.6l9.9,5.3l-2.3,4.6l-9.9-5.3l-4.6,7.6l10.7,6.1l-2.3,4.6l-16.8-9.2l16-29
		l16.8,9.2L-176.4,199.5z"/>
	<path class="st4" d="M0.6,597l-5.3,19.1l-5.3-1.5l3.8-13l-8.4-2.3l-3.1,9.9l-5.3-1.5l3.1-9.9l-13.7-3.8l1.5-6.1L0.6,597z"/>
	<path class="st4" d="M-39.8,636.7l4.6-12.2l-5.3-4.6l2.3-6.1l27.5,22.9l-3.1,6.9l-35.1-0.8l2.3-6.1L-39.8,636.7z M-20,637.5
		l-11.4-9.2l-3.1,9.2H-20z"/>
	<path class="st4" d="M-35.2,690.9L-65,675.6l3.1-6.1l27.5-2.3l-20.6-10.7l3.1-6.1l29.8,15.3l-3.1,6.1l-27.5,2.3l20.6,10.7
		L-35.2,690.9z"/>
	<path class="st4" d="M-42.1,700.8l-13,19.8l-4.6-3.1l4.6-6.9l-23.7-15.3l3.8-5.3l23.7,15.3l4.6-6.9L-42.1,700.8z"/>
	<path class="st4" d="M-95.5,729l8.4-9.9l-3.8-5.3l4.6-5.3l18.3,30.5l-4.6,6.1l-33.6-12.2l4.6-5.3L-95.5,729z M-76.4,735.9
		l-7.6-12.2l-6.1,7.6L-76.4,735.9z"/>
	<path class="st4" d="M-119.9,745.1c4.6-4.6,11.4-6.1,15.3-1.5l-5.3,4.6c-2.3-1.5-4.6-1.5-6.9,0c-2.3,2.3-2.3,4.6-0.8,6.1
		c5.3,5.3,13.7-9.9,22.1-0.8c4.6,4.6,3.1,9.9-1.5,15.3c-4.6,4.6-10.7,5.3-15.3,1.5l5.3-5.3c1.5,1.5,3.8,1.5,6.1-0.8
		c1.5-1.5,2.3-3.8,0.8-6.1c-4.6-4.6-13.7,9.9-22.1,1.5C-125.3,756.5-125.3,750.4-119.9,745.1z"/>
	<path class="st4" d="M-112.3,784.7l-6.1,4.6l-15.3-7.6l3.8,16l-5.3,4.6l-5.3-23.7l-7.6-9.2l5.3-3.8l7.6,9.2L-112.3,784.7z"/>
	<path class="st4" d="M-188.6,804.6l11.4-6.1l-1.5-6.9l6.1-3.1l6.9,35.1l-6.9,3.8l-26.7-22.9l6.1-3.8L-188.6,804.6z M-173.3,818.3
		l-3.1-14.5l-8.4,4.6L-173.3,818.3z"/>
	<path class="st4" d="M-213.8,846.5l-6.1,3.1l-2.3-35.1l6.9-3.1l24.4,25.9l-6.1,3.1l-19.1-20.6L-213.8,846.5z"/>
	<path class="st4" d="M-250.4,854.2l11.4-3.8l-2.3-7.6l-10.7,3.8l-1.5-5.3l10.7-3.8l-3.1-8.4l-11.4,3.8l-1.5-5.3l17.5-6.1l10.7,32
		l-17.5,6.1L-250.4,854.2z"/>
	<path class="st4" d="M-273.3,865.6c-7.6,1.5-12.2-1.5-13.7-7.6c-0.8-3.8,0-8.4,5.3-10.7l-10.7-11.4l7.6-1.5l9.9,10.7l3.1-0.8
		l-3.1-13l6.1-1.5l7.6,32.8L-273.3,865.6z M-274.1,860.3l5.3-1.5l-2.3-9.2l-5.3,1.5c-3.8,0.8-4.6,3.1-3.8,6.1
		C-279.4,859.5-277.9,861-274.1,860.3z"/>
	<path class="st4" d="M-329,864.1l7.6-0.8c1.5,2.3,4.6,3.8,8.4,3.1c6.1-0.8,9.2-5.3,8.4-12.2c-0.8-6.9-5.3-10.7-11.4-9.9
		c-5.3,0.8-7.6,3.8-8.4,8.4l11.4-1.5l0.8,5.3l-17.5,2.3l-0.8-6.1c0.8-6.9,5.3-13.7,14.5-14.5c9.2-0.8,17.5,5.3,18.3,15.3
		c1.5,9.9-5.3,17.5-14.5,19.1C-319.8,874-325.9,871-329,864.1z"/>
	<path class="st4" d="M-361,848.1h13l2.3-6.1h6.9l-11.4,33.6h-7.6l-12.2-33.6h6.9L-361,848.1z M-354.2,867.1l4.6-13.7h-9.2
		L-354.2,867.1z"/>
	<path class="st4" d="M-399.2,867.9l12.2,0.8l0.8-8.4l-10.7-0.8l0.8-5.3l10.7,0.8l0.8-9.2l-12.2-0.8l0.8-5.3l19.1,1.5l-3.1,33.6
		l-19.1-1.5L-399.2,867.9z"/>
	<path class="st4" d="M-432.8,832.8c6.9,1.5,10.7,6.1,9.9,12.2l-6.9-1.5c0.8-2.3-0.8-4.6-3.8-5.3c-3.1-0.8-5.3,0.8-5.3,3.1
		c-1.5,6.9,16,6.1,13,18.3c-1.5,6.1-6.9,8.4-13,6.9c-6.9-1.5-9.9-6.1-9.2-11.4l6.9,1.5c0,2.3,0.8,4.6,3.8,4.6c2.3,0.8,4.6,0,5.3-3.1
		c1.5-6.9-15.3-6.9-13-18.3C-445,835.1-440.4,831.3-432.8,832.8z"/>
	<path class="st4" d="M-478.5,855.7c-6.9-2.3-11.4-7.6-11.4-15.3l6.9,2.3c0.8,3.8,2.3,6.1,6.1,6.9c5.3,1.5,10.7-0.8,13-7.6
		c2.3-6.1,0-11.4-6.1-13.7c-3.1-0.8-6.1-0.8-9.2,2.3l-6.9-2.3c4.6-6.1,10.7-7.6,17.5-5.3c9.2,3.1,13.7,12.2,9.9,21.4
		C-460.2,854.2-469.4,858.7-478.5,855.7z"/>
	<path class="st4" d="M-504.5,809.2c8.4,3.8,12.2,13.7,7.6,22.9c-3.8,9.2-13.7,12.2-22.1,8.4c-8.4-3.8-12.2-13.7-7.6-22.1
		C-522.8,808.4-512.9,805.3-504.5,809.2z M-506.8,814.5c-5.3-2.3-10.7,0-13.7,6.1c-3.1,6.1-0.8,11.4,4.6,14.5
		c5.3,2.3,10.7,0,13.7-6.1C-499.9,822.9-501.4,816.8-506.8,814.5z"/>
	<path class="st4" d="M-554.9,820.6c-6.9-3.8-7.6-9.9-4.6-14.5c2.3-3.8,6.1-6.1,11.4-4.6v-15.3l6.1,3.8l-0.8,14.5l2.3,1.5l6.9-11.4
		l5.3,3.1l-16.8,29L-554.9,820.6z M-551.8,816l4.6,3.1l5.3-8.4l-4.6-3.1c-3.1-1.5-5.3-0.8-6.9,1.5
		C-555.6,811.4-554.9,813.7-551.8,816z"/>
	<path class="st4" d="M-587.7,791.6l9.9,7.6l4.6-6.9l-9.2-6.1l3.1-4.6l9.2,6.1l5.3-6.9l-9.9-7.6l3.1-4.6l15.3,11.4l-19.8,26.7
		l-15.3-11.4L-587.7,791.6z"/>
</g>
</svg>
