<?xml version="1.0" encoding="utf-8"?>
<!-- Generator: Adobe Illustrator 19.0.0, SVG Export Plug-In . SVG Version: 6.00 Build 0)  -->
<svg version="1.1" id="Layer_1" xmlns="http://www.w3.org/2000/svg" xmlns:xlink="http://www.w3.org/1999/xlink" x="0px" y="0px"
	 viewBox="-981 0.5 1000 1000" style="enable-background:new -981 0.5 1000 1000;" xml:space="preserve">
<g>
	<path d="M-44.4,257.7h-877c-30.3,0-54.8-24.5-54.8-54.8s24.5-54.8,54.8-54.8h877c30.3,0,54.8,24.5,54.8,54.8
		S-14.1,257.7-44.4,257.7z"/>
</g>
<g>
	<path d="M-44.4,531.8h-602.9c-30.3,0-54.8-24.5-54.8-54.8c0-30.3,24.5-54.8,54.8-54.8h602.9c30.3,0,54.8,24.5,54.8,54.8
		C10.5,507.3-14.1,531.8-44.4,531.8z"/>
</g>
<g>
	<path d="M-44.4,805.9h-328.9c-30.3,0-54.8-24.5-54.8-54.8c0-30.3,24.5-54.8,54.8-54.8h328.9c30.3,0,54.8,24.5,54.8,54.8
		C10.5,781.4-14.1,805.9-44.4,805.9z"/>
</g>
</svg>
