<?xml version="1.0" encoding="utf-8"?>
<!-- Generator: Adobe Illustrator 19.0.0, SVG Export Plug-In . SVG Version: 6.00 Build 0)  -->
<svg version="1.1" id="Layer_1" xmlns="http://www.w3.org/2000/svg" xmlns:xlink="http://www.w3.org/1999/xlink" x="0px" y="0px"
	 viewBox="-977 0.5 1000 1000" style="enable-background:new -977 0.5 1000 1000;" xml:space="preserve">
<style type="text/css">
	.st0{fill:#FFFFFF;}
</style>
<g>
	<path class="st0" d="M-54.6,236.2h-846.7c-39.3,0-71.2-31.9-71.2-71.2s31.9-71.2,71.2-71.2h846.7c39.3,0,71.2,31.9,71.2,71.2
		S-15.3,236.2-54.6,236.2z"/>
</g>
<g>
	<path class="st0" d="M-54.6,565.9h-846.7c-39.3,0-71.2-31.9-71.2-71.2c0-39.3,31.9-71.2,71.2-71.2h846.7
		c39.3,0,71.2,31.9,71.2,71.2C16.6,534-15.3,565.9-54.6,565.9z"/>
</g>
<g>
	<path class="st0" d="M-54.6,895.6h-846.7c-39.3,0-71.2-31.9-71.2-71.2c0-39.3,31.9-71.2,71.2-71.2h846.7
		c39.3,0,71.2,31.9,71.2,71.2C16.6,863.7-15.3,895.6-54.6,895.6z"/>
</g>
</svg>
