<?xml version="1.0" encoding="utf-8"?>
<!-- Generator: Adobe Illustrator 19.0.0, SVG Export Plug-In . SVG Version: 6.00 Build 0)  -->
<svg version="1.1" id="Layer_1" xmlns="http://www.w3.org/2000/svg" xmlns:xlink="http://www.w3.org/1999/xlink" x="0px" y="0px"
	 viewBox="-982.5 0.5 1000 1000" style="enable-background:new -982.5 0.5 1000 1000;" xml:space="preserve">
<style type="text/css">
	.st0{fill:#FFFFFF;}
</style>
<path class="st0" d="M10.1,678.3c0,88.6,0,177.1,0,265.8c0,29.4-19,48.6-48.4,48.6c-104.1,0.1-208.2,0.1-312.3,0
	c-28.7,0-45.9-17.2-46-45.7c-0.2-63.7-0.1-127.3,0-191c0-31.3-10.1-58.2-35.8-77.1c-29.4-21.6-61.8-24.7-94.3-8.7
	c-33.7,16.5-49.7,45.5-50,82.7c-0.4,63-1.2,126,0.3,189c0.9,36.1-23.7,51.4-51.4,51.1c-100.1-1-200.3-0.3-300.5-0.3
	c-32.3,0-49.1-16.8-49.1-48.9c0-175.2,0-350.4,0-525.6c0-43.4,17.2-77.7,52.6-103.1c137.3-99,274.4-198.3,411.5-297.4
	c21.8-15.8,37.6-15.9,59.1-0.4C-316.6,116.7-179,216.2-41.4,315.8c34.8,25.1,51.4,59.1,51.4,101.7C10.1,504.4,10.1,591.3,10.1,678.3
	z M-74.1,910.1c0-4.8,0-8.8,0-12.6c0-158.5-0.2-317,0.3-475.5c0.1-18.3-6.7-30.9-21.2-41.3C-222.6,288.4-350,195.7-477.4,103
	c-5.3-3.9-8.7-4.4-14.4-0.3c-128.1,92.6-256.3,185.1-384.6,277.5c-13.1,9.4-19.1,21.1-19,37.4c0.3,159.8,0.2,319.6,0.2,479.4
	c0,3.5,0,7,0,10.5c80,0,159,0,238.4,0c0-50.3-0.3-99.9,0.2-149.4c0.1-13,1.1-26.3,3.3-39.1c15.9-94,113.4-158.5,206-136.4
	c80.5,19.1,134.3,87.4,134.9,171.2c0.3,48.2,0.1,96.5,0.1,144.7c0,3.8,0,7.5,0,11.6C-232.4,910.1-154,910.1-74.1,910.1z"/>
</svg>
