<svg width="17" height="17" viewBox="0 0 17 17" fill="none" xmlns="http://www.w3.org/2000/svg">
<path d="M8.50517 16.997C5.99201 16.997 3.47737 16.997 0.964214 16.997C0.888908 16.997 0.812125 16.997 0.738296 16.9911C0.590637 16.9793 0.45036 16.9454 0.32042 16.8701C0.237731 16.8228 0.174238 16.7593 0.128463 16.6767C0.0753062 16.5836 0.0428212 16.4832 0.0236255 16.3769C0.00590637 16.2736 0 16.1702 0 16.0669C0 14.5756 0 13.0829 0 11.5902C0 10.7929 0 9.99713 0 9.20132C0 8.66979 0.00147659 8.13827 0.00147659 7.60674C0.00295318 7.00877 0.00295318 6.4108 0.00442978 5.81431C0.00442978 5.4762 0.00738296 5.13809 0.00590637 4.80146C0.00590637 4.60361 0.0428212 4.41167 0.115174 4.22859C0.568488 3.09024 1.02032 1.95336 1.47364 0.815008C1.50908 0.724944 1.54599 0.634879 1.58143 0.546291C1.61834 0.454751 1.66412 0.366163 1.72023 0.283481C1.77782 0.19637 1.85608 0.132882 1.9491 0.0885878C2.0377 0.0472468 2.13072 0.0250999 2.22818 0.0132882C2.32858 0 2.42752 0 2.52645 0C3.68853 0 4.8506 0 6.01268 0C7.54538 0 9.07956 0 10.6123 0C11.9309 0 13.2495 0 14.5666 0C14.6877 0 14.8073 0.0103352 14.9239 0.0428174C14.9697 0.0546291 15.014 0.0723467 15.0553 0.0930172C15.1498 0.135835 15.2266 0.200799 15.2842 0.28791C15.3433 0.376498 15.389 0.472468 15.4289 0.571391C15.6622 1.15459 15.8955 1.73632 16.1273 2.31952C16.3843 2.96326 16.6382 3.60848 16.8952 4.25369C16.9616 4.42053 16.9941 4.5918 16.9941 4.77193C16.9926 5.13809 16.9941 5.50426 16.9956 5.87042C16.9956 6.2292 16.997 6.58798 16.997 6.94824C16.997 7.34541 16.9985 7.74257 16.9985 8.13827C16.9985 10.7959 17 13.4535 17 16.1112C17 16.2322 16.9911 16.3518 16.9601 16.4685C16.938 16.5541 16.9025 16.6324 16.8553 16.7077C16.8154 16.7682 16.7667 16.8169 16.7062 16.8568C16.6072 16.9203 16.4994 16.9587 16.3843 16.9808C16.2883 17 16.1923 17 16.0948 17C15.6533 17 15.2118 17 14.7689 17C12.6824 16.997 10.5945 16.997 8.50517 16.997ZM8.49926 15.5915C10.819 15.5915 13.1387 15.5915 15.4584 15.5915C15.4791 15.5915 15.5013 15.5915 15.5219 15.5915C15.5692 15.59 15.5987 15.559 15.6017 15.5117C15.6017 15.4925 15.6017 15.4733 15.6017 15.4556C15.6017 12.1232 15.6017 8.78939 15.6017 5.45701C15.6017 5.43781 15.6017 5.41862 15.6017 5.4009C15.6002 5.3448 15.5707 5.31527 15.5145 5.31379C15.4954 5.31379 15.4762 5.31379 15.4584 5.31379C10.8219 5.31379 6.18397 5.31379 1.54747 5.31379C1.52827 5.31379 1.50908 5.31379 1.49136 5.31379C1.4382 5.31527 1.41162 5.34332 1.40867 5.39795C1.40867 5.41271 1.40867 5.426 1.40867 5.44077C1.40867 8.78348 1.40867 12.1247 1.40867 15.4674C1.40867 15.4837 1.40867 15.4999 1.40867 15.5176C1.41162 15.5649 1.43672 15.59 1.48397 15.5929C1.5076 15.5944 1.53123 15.5929 1.55485 15.5929C3.86867 15.5915 6.18397 15.5915 8.49926 15.5915ZM8.49631 3.89786C10.689 3.89786 12.8803 3.89786 15.073 3.89786C15.0937 3.89786 15.1159 3.89786 15.1365 3.89786C15.1838 3.89639 15.2148 3.86538 15.2148 3.81813C15.2148 3.79303 15.2118 3.76646 15.2059 3.74136C15.1912 3.68968 15.1749 3.63801 15.1543 3.58781C14.9387 3.04447 14.7201 2.50113 14.5046 1.95779C14.4588 1.84115 14.413 1.72599 14.3687 1.60787C14.3436 1.54143 14.3037 1.48828 14.2506 1.4425C14.2255 1.42036 14.1974 1.40412 14.162 1.39969C14.1192 1.39526 14.0778 1.38935 14.035 1.38935C13.5123 1.38935 12.9911 1.39083 12.4683 1.39083C11.8733 1.3923 11.2782 1.39231 10.6831 1.39231C9.05298 1.39231 7.42283 1.39083 5.79267 1.39083C5.44272 1.39083 5.09276 1.38935 4.74429 1.38935C4.14627 1.38935 3.54973 1.38788 2.95171 1.38935C2.91184 1.38935 2.87197 1.39378 2.8321 1.40116C2.807 1.40559 2.7819 1.4174 2.7627 1.43365C2.70955 1.47646 2.66377 1.52666 2.64015 1.59458C2.62243 1.64626 2.60028 1.69646 2.58108 1.74666C2.3404 2.34905 2.09971 2.95145 1.86051 3.55532C1.83688 3.61438 1.81621 3.67492 1.79701 3.73545C1.78815 3.76203 1.7852 3.79156 1.7852 3.81813C1.7852 3.86538 1.81621 3.89639 1.86346 3.89786C1.88413 3.89934 1.90628 3.89786 1.92695 3.89786C4.11674 3.89786 6.30652 3.89786 8.49631 3.89786Z" fill="white"/>
</svg>
