<?xml version="1.0" encoding="utf-8"?>
<!-- Generator: Adobe Illustrator 19.0.0, SVG Export Plug-In . SVG Version: 6.00 Build 0)  -->
<svg version="1.1" id="Layer_1" xmlns="http://www.w3.org/2000/svg" xmlns:xlink="http://www.w3.org/1999/xlink" x="0px" y="0px"
	 viewBox="0 0 1000 1000" style="enable-background:new 0 0 1000 1000;" xml:space="preserve">
<style type="text/css">
	.st0{fill:#FFFFFF;}
</style>
<path class="st0" d="M925,335.6c0,62.1-0.1,124.3,0,186.4c0.2,132.2-57.6,233.6-160.3,308.4c-55,40-114,74-171.3,110.7
	c-26.8,17.1-53.7,34.2-80.6,50.9c-2.9,1.8-8.6,2.6-11.2,1c-82.2-51.7-165.4-102-245.9-156.2c-78.9-53.1-133.9-126.5-157.4-221.5
	c-6.8-27.4-10.3-56.5-10.4-84.9c-1.1-139.7-0.4-279.4-0.7-419.1c0-7.9,2.1-11,9.9-12.7c134-29.9,267.8-60.3,401.8-89.9
	c9.5-2.1,20.3,0.7,30.1,2.8c128.7,28.9,257.3,58.2,386.1,87c7.8,1.8,10,4.7,10,12.6C924.8,186.1,925,260.8,925,335.6z M152.4,154.5
	c-0.2,2.9-0.3,4.9-0.3,7c0,126.1-0.2,252,0.4,378.1c0.1,19.2,2.9,38.9,7.4,57.5c19.5,79.2,65.8,139.9,131.1,184
	c68.8,46.6,139.8,89.6,209.7,134.5c5.2,3.3,8.4,1.5,12.4-1.1c45.3-28.7,90.8-57,135.7-86.2c33.7-21.9,68.7-42.4,99.3-68.3
	c73.6-62.2,113.7-141.7,112.4-242.2c-1.6-117.4-0.5-235-0.2-352.5c0-9-2.5-11.9-11.1-13.8C740.3,126.9,631.4,101.6,522.6,77
	c-8.2-1.8-17.4-3.1-25.4-1.3C406,96,315,116.9,224,137.8C200.2,143.3,176.4,148.9,152.4,154.5z"/>
</svg>
