<?xml version="1.0" encoding="utf-8"?>
<!-- Generator: Adobe Illustrator 19.0.0, SVG Export Plug-In . SVG Version: 6.00 Build 0)  -->
<svg version="1.1" id="Layer_1" xmlns="http://www.w3.org/2000/svg" xmlns:xlink="http://www.w3.org/1999/xlink" x="0px" y="0px"
	 viewBox="-964.5 0.5 1000 1000" style="enable-background:new -964.5 0.5 1000 1000;" xml:space="preserve">
<style type="text/css">
	.st0{fill:#3B62F6;stroke:#3B62F6;}
	.st1{fill:#FFFFFF;}
	.st2{fill:#3B62F6;}
</style>
<path class="st0" d="M29.8,499.7c0,272.9-221.2,494.1-494.1,494.1c-272.9,0-494.1-221.2-494.1-494.1
	c0-272.9,221.2-494.1,494.1-494.1C-191.4,5.6,29.8,226.8,29.8,499.7z"/>
<path class="st1" d="M-586.4,265.3V400c0,0,36.9-33.1,92.9-39.4v-95.5L-586.4,265.3z"/>
<path class="st1" d="M-349.4,264.1v134.7c0,0-36.9-33.1-92.9-39.4V264L-349.4,264.1z"/>
<path class="st1" d="M-464.1,735.1c91.8,0,166.3-74.5,166.3-166.3s-74.5-166.3-166.3-166.3S-630.4,477-630.4,568.8
	S-556,735.1-464.1,735.1z"/>
<path class="st2" d="M-492.4,535.2l27.9-53.5l24.1,53.3l58.4,7.3l-43.9,48.8l11.4,55.1l-52.7-28.4l-51.9,26.8l12.9-54.4l-47.8-47
	L-492.4,535.2z"/>
</svg>
