<?xml version="1.0" encoding="utf-8"?>
<!-- Generator: Adobe Illustrator 19.0.0, SVG Export Plug-In . SVG Version: 6.00 Build 0)  -->
<svg version="1.1" id="Layer_1" xmlns="http://www.w3.org/2000/svg" xmlns:xlink="http://www.w3.org/1999/xlink" x="0px" y="0px"
	 viewBox="-971 0.5 1000 1000" style="enable-background:new -971 0.5 1000 1000;" xml:space="preserve">
<style type="text/css">
	.st0{fill:#FFFFFF;}
</style>
<path class="st0" d="M-45.5,430.5h-5.2v-52.5c0-60.9-45.1-111.2-104.9-119.6v-64c0-66.1-54.6-120.7-120.7-120.7h-559.2
	c-69.2,0-127,55.6-128,125.9v592.8c0,66.1,54.6,120.7,120.7,120.7h671.5c66.1,0,120.7-54.6,120.7-120.7v-57.7h5.2
	c37.8,0,68.2-30.4,68.2-68.2V498.7C22.7,461-7.8,430.5-45.5,430.5z M-890.2,201.8c0-30.4,25.2-54.6,54.6-54.6h558.2
	c26.2,0,47.2,21,47.2,47.2v63h-605.4C-865,257.4-890.2,232.2-890.2,201.8z M-50.8,661.4h-173.1c-43,0-78.7-35.7-78.7-78.7
	c0-43,35.7-78.7,78.7-78.7h173.1V661.4z"/>
</svg>
